<svg id="组_991" data-name="组 991" xmlns="http://www.w3.org/2000/svg" width="168" height="54" viewBox="0 0 168 54">
  <defs>
    <style>
      .cls-1 {
        fill: #fff;
        opacity: 0;
      }

      .cls-2, .cls-3 {
        fill: #f03947;
      }

      .cls-3 {
        fill-rule: evenodd;
      }
    </style>
  </defs>
  <rect id="矩形_67" data-name="矩形 67" class="cls-1" width="168" height="54"/>
  <g id="组_2" data-name="组 2" transform="translate(41 13)">
    <path id="路径_1" data-name="路径 1" class="cls-2" d="M218.677,307.676h-3.862a3.987,3.987,0,0,1-3.944-4.013h0a3.987,3.987,0,0,1,3.944-4.013h7.6a1.318,1.318,0,0,1,1.3,1.327h0a1.318,1.318,0,0,1-1.3,1.327h-7.6a1.351,1.351,0,0,0-1.336,1.36h0a1.351,1.351,0,0,0,1.336,1.36h3.862a1.318,1.318,0,0,1,1.3,1.327h0A1.318,1.318,0,0,1,218.677,307.676Z" transform="translate(-182.086 -299.179)"/>
    <path id="路径_2" data-name="路径 2" class="cls-2" d="M307.4,349.567h-18.66a1.247,1.247,0,0,1-.927-.394,1.293,1.293,0,0,1-.377-.947,1.318,1.318,0,0,1,1.3-1.312h8.026v-1.258h-5.59A1.186,1.186,0,0,1,290,344.461h0a1.186,1.186,0,0,1,1.173-1.194h5.59v-1.061h2.608v1.061h5.59a1.186,1.186,0,0,1,1.173,1.194h0a1.186,1.186,0,0,1-1.173,1.194h-5.59v1.258H307.4a1.327,1.327,0,0,1,0,2.654Z" transform="translate(-223.319 -322.098)"/>
    <path id="路径_3" data-name="路径 3" class="cls-2" d="M255.428,302.3H250.3V324h4.973a3.27,3.27,0,0,0,3.241-2.97l1.347-13.037a3.27,3.27,0,0,1,3.241-2.97h16.5a1.351,1.351,0,0,0,1.336-1.36h0a1.351,1.351,0,0,0-1.336-1.36H261.625a1.318,1.318,0,0,1-1.3-1.327h0a1.318,1.318,0,0,1,1.3-1.327H279.6a3.987,3.987,0,0,1,3.944,4.013h0a3.987,3.987,0,0,1-3.944,4.013H264.733a2.044,2.044,0,0,0-2.026,1.856l-1.231,11.923a5.724,5.724,0,0,1-5.673,5.2H242.56a1.318,1.318,0,0,1-1.3-1.327h0a1.318,1.318,0,0,1,1.3-1.327h5.13V302.3h-5.13a1.318,1.318,0,0,1-1.3-1.327h0a1.318,1.318,0,0,1,1.3-1.327h12.868a1.318,1.318,0,0,1,1.3,1.327h0A1.318,1.318,0,0,1,255.428,302.3Z" transform="translate(-198.449 -299.179)"/>
    <path id="路径_4" data-name="路径 4" class="cls-2" d="M218.677,334.06h-3.862a3.987,3.987,0,0,1-3.944-4.013h0a3.987,3.987,0,0,1,3.944-4.013h7.6a1.318,1.318,0,0,1,1.3,1.327h0a1.318,1.318,0,0,1-1.3,1.327h-7.6a1.351,1.351,0,0,0-1.336,1.36h0a1.351,1.351,0,0,0,1.336,1.36h3.862a1.318,1.318,0,0,1,1.3,1.327h0A1.318,1.318,0,0,1,218.677,334.06Z" transform="translate(-182.086 -313.388)"/>
    <g id="组_1" data-name="组 1" transform="translate(69.047 9.56)">
      <path id="路径_5" data-name="路径 5" class="cls-3" d="M303.823,319.348a5.805,5.805,0,1,1-5.7,5.8,5.756,5.756,0,0,1,5.7-5.8Zm0,2.28a3.525,3.525,0,1,0,3.463,3.525A3.495,3.495,0,0,0,303.823,321.628Z" transform="translate(-298.118 -319.348)"/>
      <path id="路径_6" data-name="路径 6" class="cls-2" d="M310,326.916a.415.415,0,0,1,0-.829,2.619,2.619,0,0,1,1.873.789,2.712,2.712,0,0,1,.776,1.906.407.407,0,1,1-.815,0,1.877,1.877,0,0,0-.537-1.32A1.812,1.812,0,0,0,310,326.916Z" transform="translate(-304.3 -322.977)"/>
    </g>
    <path id="路径_7" data-name="路径 7" class="cls-2" d="M174.714,299.958v22a4.118,4.118,0,0,1-4.074,4.146H168.7a1.318,1.318,0,0,1-1.3-1.327h0a1.318,1.318,0,0,1,1.3-1.327h1.941a1.483,1.483,0,0,0,1.467-1.493v-22a1.318,1.318,0,0,1,1.3-1.327h0A1.318,1.318,0,0,1,174.714,299.958Z" transform="translate(-158.672 -298.631)"/>
    <path id="路径_8" data-name="路径 8" class="cls-2" d="M155.583,309.387l-.606,11.794a7.833,7.833,0,0,1-2.377,5.25,7.6,7.6,0,0,1-3.141,1.831l-.022.006a1.331,1.331,0,0,0-.894,1.641,1.3,1.3,0,0,0,1.613.91h0l.016,0a10.224,10.224,0,0,0,4.222-2.464,10.494,10.494,0,0,0,3.182-7.033l.606-11.79a1.3,1.3,0,0,0-.334-.958,1.28,1.28,0,0,0-1.815-.113A1.292,1.292,0,0,0,155.583,309.387Z" transform="translate(-148.492 -303.746)"/>
    <path id="路径_9" data-name="路径 9" class="cls-2" d="M193.969,309.387l.606,11.794a7.834,7.834,0,0,0,2.377,5.25,7.569,7.569,0,0,0,5.276,2.136h9.749a1.318,1.318,0,0,1,1.3,1.327h0a1.318,1.318,0,0,1-1.3,1.327h-9.749a10.145,10.145,0,0,1-7.068-2.872,10.494,10.494,0,0,1-3.182-7.033l-.606-11.79a1.3,1.3,0,0,1,.334-.958,1.28,1.28,0,0,1,1.815-.113A1.29,1.29,0,0,1,193.969,309.387Z" transform="translate(-171.583 -303.746)"/>
  </g>
</svg>
