<svg xmlns="http://www.w3.org/2000/svg" width="16" height="16.002" viewBox="0 0 16 16.002"><defs><style>.a{fill:#99a0aa;}</style></defs><g transform="translate(-96 -96)"><path class="a" d="M203.346,255.871h-6.822a2.713,2.713,0,0,1-2.724-2.7v-9.443a.938.938,0,0,1,.943-.933h10.379a.938.938,0,0,1,.943.933v9.443A2.707,2.707,0,0,1,203.346,255.871Zm-7.657-11.2v8.508a.834.834,0,0,0,.837.828h6.82a.834.834,0,0,0,.837-.828v-8.508Z" transform="translate(-95.934 -143.869)"/><path class="a" d="M111.061,100.718H96.94a.943.943,0,0,1,0-1.886H111.06a.943.943,0,0,1,0,1.886Zm-5.649-2.831h-2.823a.944.944,0,0,1,0-1.888h2.823a.944.944,0,0,1,0,1.888Zm-2.823,10.379a.942.942,0,0,1-.94-.943v-3.775a.94.94,0,1,1,1.881,0v3.775A.942.942,0,0,1,102.589,108.267Zm2.823,0a.942.942,0,0,1-.94-.943v-3.775a.941.941,0,1,1,1.881,0v3.775A.941.941,0,0,1,105.413,108.267Z"/></g></svg>