<svg xmlns="http://www.w3.org/2000/svg" width="18" height="18" viewBox="0 0 18 18"><defs><style>.a{fill:#fff;opacity:0;}.b{fill:#f03947;}</style></defs><g transform="translate(-1125 -308)"><rect class="a" width="18" height="18" transform="translate(1125 308)"/><path class="b" d="M2934.012-7073.14a1,1,0,0,1-1-1,1,1,0,0,1,1-1H2948a1,1,0,0,1,1,1,1,1,0,0,1-1,1Zm.044-5.867,6.05-6.048,2.83,2.763-6.084,6.08L2933-7075.14Zm6.9-6.9,1.517-1.516a1.975,1.975,0,0,1,2.795,0,1.978,1.978,0,0,1,0,2.8l-1.471,1.471Z" transform="translate(-1807.012 7398)"/></g></svg>