<svg xmlns="http://www.w3.org/2000/svg" width="18" height="18" viewBox="0 0 18 18">
  <defs>
    <style>
      .cls-1 {
        fill: #fff;
      }

      .cls-2, .cls-3 {
        stroke: none;
      }

      .cls-3 {
        fill: #393e46;
      }
    </style>
  </defs>
  <g id="联合_4" data-name="联合 4" class="cls-1">
    <path class="cls-2" d="M 9 17.5 C 4.313079833984375 17.5 0.5 13.68692016601563 0.5 9 C 0.5 5.649152755737305 2.482277154922485 2.621111154556274 5.50029993057251 1.25391161441803 L 5.50029993057251 1.807142496109009 C 2.755846977233887 3.144961833953857 1.000300049781799 5.932937622070313 1.000300049781799 9 C 1.000300049781799 13.41104984283447 4.588950157165527 16.99970054626465 9 16.99970054626465 C 13.41104984283447 16.99970054626465 16.99970054626465 13.41104984283447 16.99970054626465 9 C 16.99970054626465 5.933342933654785 15.24411582946777 3.145363330841064 12.49969959259033 1.807176351547241 L 12.49969959259033 1.25391161441803 C 15.51772308349609 2.621111154556274 17.5 5.649152755737305 17.5 9 C 17.5 13.68692016601563 13.68692016601563 17.5 9 17.5 Z M 9.499899864196777 7.500100135803223 L 8.500100135803223 7.500100135803223 L 8.500100135803223 0.5 L 9.499899864196777 0.5 L 9.499899864196777 7.500100135803223 Z"/>
    <path class="cls-3" d="M 8.000100135803223 0 L 9.999899864196777 0 L 9.999899864196777 8.000100135803223 L 8.000100135803223 8.000100135803223 L 8.000100135803223 0 Z M 6.000300407409668 0.5139007568359375 L 6.000300407409668 2.126700401306152 C 3.26609992980957 3.323699951171875 1.500299453735352 6.021900177001953 1.500299453735352 9 C 1.500299453735352 13.13549995422363 4.864500045776367 16.49970054626465 9 16.49970054626465 C 13.13549995422363 16.49970054626465 16.49970054626465 13.13549995422363 16.49970054626465 9 C 16.49970054626465 6.021900177001953 14.73299980163574 3.323699951171875 11.99970054626465 2.126700401306152 L 11.99970054626465 0.5139007568359375 C 15.58889961242676 1.786500930786133 18 5.197500228881836 18 9 C 18 13.96260070800781 13.96260070800781 18 9 18 C 4.037400245666504 18 0 13.96260070800781 0 9 C 0 5.196599960327148 2.411100387573242 1.786500930786133 6.000300407409668 0.5139007568359375 Z"/>
  </g>
</svg>
