<svg xmlns="http://www.w3.org/2000/svg" width="44" height="44" viewBox="0 0 44 44"><defs><style>.a{opacity:0.6;}.b{fill:#fff;opacity:0.2;}</style></defs><g transform="translate(-26 -415)"><circle class="a" cx="22" cy="22" r="22" transform="translate(26 415)"/><path class="b" d="M-11503.546-3130.982l-8.642-8.642a1.356,1.356,0,0,1-.4-.962,1.349,1.349,0,0,1,.4-.96l8.642-8.642a1.358,1.358,0,0,1,1.922,0,1.359,1.359,0,0,1,0,1.918l-7.684,7.684,7.684,7.681a1.363,1.363,0,0,1,0,1.921,1.36,1.36,0,0,1-.962.4A1.354,1.354,0,0,1-11503.546-3130.982Z" transform="translate(11553.586 3577.586)"/></g></svg>