<svg id="组_1007" data-name="组 1007" xmlns="http://www.w3.org/2000/svg" width="66" height="54" viewBox="0 0 66 54">
  <defs>
    <style>
      .cls-1 {
        fill: #fff;
        opacity: 0;
      }

      .cls-2, .cls-3 {
        fill: #f03947;
      }

      .cls-3 {
        fill-rule: evenodd;
      }
    </style>
  </defs>
  <rect id="矩形_67" data-name="矩形 67" class="cls-1" width="66" height="54"/>
  <g id="组_2" data-name="组 2" transform="translate(6.008 18.027)">
    <path id="路径_1" data-name="路径 1" class="cls-2" d="M215.8,304.719h-2.439a2.518,2.518,0,0,1-2.491-2.535h0a2.518,2.518,0,0,1,2.491-2.535h4.8a.832.832,0,0,1,.823.838h0a.832.832,0,0,1-.823.838h-4.8a.853.853,0,0,0-.844.859h0a.853.853,0,0,0,.844.859H215.8a.832.832,0,0,1,.823.838h0A.832.832,0,0,1,215.8,304.719Z" transform="translate(-192.691 -299.352)"/>
    <path id="路径_2" data-name="路径 2" class="cls-2" d="M300.044,346.855H288.259a.788.788,0,0,1-.585-.249.817.817,0,0,1-.238-.6.833.833,0,0,1,.823-.829h5.069v-.795H289.8a.749.749,0,0,1-.741-.754h0a.749.749,0,0,1,.741-.754h3.53v-.67h1.647v.67h3.531a.749.749,0,0,1,.741.754h0a.749.749,0,0,1-.741.754h-3.531v.795h5.069a.838.838,0,0,1,0,1.676Z" transform="translate(-246.94 -329.506)"/>
    <path id="路径_3" data-name="路径 3" class="cls-2" d="M250.207,301.325h-3.24v13.7h3.141a2.066,2.066,0,0,0,2.047-1.876l.851-8.234a2.065,2.065,0,0,1,2.047-1.876h10.422a.853.853,0,0,0,.844-.859h0a.853.853,0,0,0-.844-.859H254.121a.832.832,0,0,1-.823-.838h0a.832.832,0,0,1,.823-.838h11.353a2.518,2.518,0,0,1,2.491,2.535h0a2.518,2.518,0,0,1-2.491,2.535h-9.391a1.291,1.291,0,0,0-1.28,1.172l-.778,7.531a3.615,3.615,0,0,1-3.583,3.283h-8.364a.832.832,0,0,1-.823-.838h0a.832.832,0,0,1,.823-.838h3.24v-13.7h-3.24a.832.832,0,0,1-.823-.838h0a.832.832,0,0,1,.823-.838h8.128a.832.832,0,0,1,.823.838h0A.832.832,0,0,1,250.207,301.325Z" transform="translate(-214.22 -299.352)"/>
    <path id="路径_4" data-name="路径 4" class="cls-2" d="M215.8,331.1h-2.439a2.518,2.518,0,0,1-2.491-2.535h0a2.518,2.518,0,0,1,2.491-2.535h4.8a.832.832,0,0,1,.823.838h0a.832.832,0,0,1-.823.838h-4.8a.853.853,0,0,0-.844.859h0a.853.853,0,0,0,.844.859H215.8a.832.832,0,0,1,.823.838h0A.832.832,0,0,1,215.8,331.1Z" transform="translate(-192.691 -318.047)"/>
    <g id="组_1" data-name="组 1" transform="translate(43.609 6.038)">
      <path id="路径_5" data-name="路径 5" class="cls-3" d="M301.721,319.348a3.667,3.667,0,1,1-3.6,3.666,3.635,3.635,0,0,1,3.6-3.666Zm0,1.44a2.226,2.226,0,1,0,2.187,2.226A2.207,2.207,0,0,0,301.721,320.788Z" transform="translate(-298.118 -319.348)"/>
      <path id="路径_6" data-name="路径 6" class="cls-2" d="M309.854,326.61a.262.262,0,0,1,0-.524,1.654,1.654,0,0,1,1.183.5,1.713,1.713,0,0,1,.49,1.2.257.257,0,1,1-.515,0,1.185,1.185,0,0,0-.339-.833A1.145,1.145,0,0,0,309.854,326.61Z" transform="translate(-306.251 -324.123)"/>
    </g>
    <path id="路径_7" data-name="路径 7" class="cls-2" d="M172.017,299.469v13.9a2.6,2.6,0,0,1-2.573,2.619h-1.226a.832.832,0,0,1-.823-.838h0a.832.832,0,0,1,.823-.838h1.226a.937.937,0,0,0,.926-.943v-13.9a.833.833,0,0,1,.823-.838h0A.832.832,0,0,1,172.017,299.469Z" transform="translate(-161.886 -298.631)"/>
    <path id="路径_8" data-name="路径 8" class="cls-2" d="M152.97,308.923l-.382,7.449a4.947,4.947,0,0,1-1.5,3.316,4.8,4.8,0,0,1-1.984,1.156l-.014,0a.84.84,0,0,0-.565,1.037.822.822,0,0,0,1.019.574h0l.01,0a6.457,6.457,0,0,0,2.666-1.556,6.628,6.628,0,0,0,2.009-4.442l.383-7.447a.819.819,0,0,0-.211-.605.808.808,0,0,0-1.147-.072A.816.816,0,0,0,152.97,308.923Z" transform="translate(-148.492 -305.361)"/>
    <path id="路径_9" data-name="路径 9" class="cls-2" d="M193.011,308.923l.383,7.449a4.948,4.948,0,0,0,1.5,3.316,4.781,4.781,0,0,0,3.332,1.349h6.157a.832.832,0,0,1,.823.838h0a.832.832,0,0,1-.823.838h-6.157a6.407,6.407,0,0,1-4.464-1.814,6.628,6.628,0,0,1-2.009-4.442l-.383-7.447a.819.819,0,0,1,.211-.605.808.808,0,0,1,1.147-.072A.815.815,0,0,1,193.011,308.923Z" transform="translate(-178.873 -305.361)"/>
  </g>
</svg>
