<svg xmlns="http://www.w3.org/2000/svg" width="18" height="18" viewBox="0 0 18 18">
  <defs>
    <style>
      .cls-1 {
        fill: #fff;
        opacity: 0;
      }

      .cls-2 {
        fill: #f03947;
      }
    </style>
  </defs>
  <g id="组_1005" data-name="组 1005" transform="translate(-1177 -290)">
    <rect id="矩形_73" data-name="矩形 73" class="cls-1" width="18" height="18" transform="translate(1177 290)"/>
    <g id="组_513" data-name="组 513" transform="translate(1112.83 106.26)">
      <path id="路径_210" data-name="路径 210" class="cls-2" d="M73.285,187c-6.416,0-8.885,6.337-8.885,6.337s2.515,6.481,8.885,6.481,8.885-6.481,8.885-6.481S79.7,187,73.285,187Zm0,10.347a3.962,3.962,0,1,1,3.962-3.962A3.963,3.963,0,0,1,73.285,197.347Z" transform="translate(0 0)"/>
      <path id="路径_211" data-name="路径 211" class="cls-2" d="M400.7,397.63a2.23,2.23,0,1,0,2.23-2.23A2.227,2.227,0,0,0,400.7,397.63Z" transform="translate(-329.633 -204.266)"/>
    </g>
  </g>
</svg>
