<svg xmlns="http://www.w3.org/2000/svg" width="16.001" height="14" viewBox="0 0 16.001 14">
  <defs>
    <style>
      .cls-1 {
        fill: #fff;
      }

      .cls-2 {
        fill: rgba(235,235,245,0.6);
      }
    </style>
  </defs>
  <g id="组_880" data-name="组 880" transform="translate(-16 -87.999)">
    <path id="路径_266" data-name="路径 266" class="cls-1" d="M71.257,156.256h3.826a.389.389,0,0,0,.432-.3.639.639,0,0,0,.007-.12q0-2.144,0-4.289a.375.375,0,0,0-.422-.415h-4V151q0-1.908,0-3.817a.374.374,0,0,0-.654-.272c-.07.074-.147.143-.219.215L67.5,149.85l-3.509,3.5a.373.373,0,0,0,0,.591l5.022,5.013c.476.475.955.947,1.431,1.423a.375.375,0,0,0,.426.113.37.37,0,0,0,.239-.391q0-1.848,0-3.7c0-.044,0-.087,0-.148Z" transform="translate(-47.841 -58.571)"/>
    <path id="联合_79" data-name="联合 79" class="cls-2" d="M5720,2472h-1a1,1,0,1,1,0-2h2.4a.6.6,0,0,0,.6-.6v-8.8a.6.6,0,0,0-.6-.6H5719a1,1,0,1,1,0-2h4a1,1,0,0,1,1,1v12a1,1,0,0,1-1,1Zm-6-12.021v0Z" transform="translate(-5692.001 -2370.001)"/>
  </g>
</svg>
